#!OML:ASF H:\Terrain\Patient Classification 1\Takeo\Monday\TakeoMonday.ASF
:FULLY-SPECIFIED
:DEGREES
32
root 9.22753 16.5238 -24.0486 5.90152 -10.9005 -3.40492
lowerback 10.5269 1.50075 5.5005
upperback 2.2625 2.60839 0.818896
thorax -3.32641 1.24513 -2.57937
lowerneck -9.88824 2.13298 -0.376104
upperneck -13.5534 2.80318 -0.74231
head -2.64555 1.42096 -0.156325
rclavicle 1.61513e-014 8.15017e-015
rhumerus -0.393892 24.0388 -75.9476
rradius 106.619
rwrist -8.18632
rhand -40.4637 54.6642
rfingers 7.12502
rthumb -13.4147 25.1161
lclavicle 1.61513e-014 8.15017e-015
lhumerus -74.1217 -15.6244 92.7895
lradius 83.166
lwrist 29.2597
lhand -36.0502 4.70596
lfingers 7.12502
lthumb -9.15829 34.4871
rfemur -1.95773 13.3934 30.8236
rtibia 36.1025
rfoot -19.7889 -6.43118
rtoes -17.0571
lfemur -44.8852 4.01803 -19.4538
ltibia 100.083
lfoot -7.97779 14.6303
ltoes -11.4858
33
root 9.2259 16.6374 -23.6528 6.1653 -10.6666 -2.98969
lowerback 10.0638 1.568 5.26651
upperback 1.8539 2.6556 0.677414
thorax -3.49748 1.25949 -2.59305
lowerneck -9.91577 1.97885 -1.00614
upperneck -12.8872 2.70838 -0.0264632
head -2.43619 1.388 0.180995
rclavicle 1.72943e-014 9.34288e-015
rhumerus -1.46278 24.3339 -76.1485
rradius 108.138
rwrist -9.64213
rhand -39.3177 54.4802
rfingers 7.12502
rthumb -12.31 24.8625
lclavicle 1.72943e-014 9.34288e-015
lhumerus -75.3065 -14.8022 92.5427
lradius 83.0769
lwrist 29.995
lhand -36.1406 4.30579
lfingers 7.12502
lthumb -9.24542 34.0831
rfemur -0.388384 13.3792 30.2832
rtibia 34.6525
rfoot -16.8557 -6.06034
rtoes -16.9839
lfemur -45.7456 2.59037 -19.9651
ltibia 96.9617
lfoot -8.43914 14.6306
ltoes -10.0585
34
root 9.22231 16.7384 -23.2618 6.4389 -10.2332 -3.12696
lowerback 9.57384 1.55123 5.65499
upperback 1.62478 2.6506 0.643712
thorax -3.44571 1.25088 -2.83091
lowerneck -10.3441 1.77088 -1.57567
upperneck -12.1033 2.53783 0.708119
head -2.12285 1.3149 0.514856
rclavicle -2.60408e-014 -1.25234e-014
rhumerus -2.03692 24.6696 -76.1448
rradius 109.182
rwrist -9.63675
rhand -40.1395 53.9751
rfingers 7.12502
rthumb -13.1022 24.4067
lclavicle -2.60408e-014 -1.25234e-014
lhumerus -76.1232 -13.9712 92.1834
lradius 83.1335
lwrist 30.3234
lhand -36.0445 4.09271
lfingers 7.12502
lthumb -9.15275 33.8741
rfemur 1.07922 12.8411 30.3205
rtibia 33.3378
rfoot -13.2232 -5.78002
rtoes -21.1739
lfemur -46.3567 1.48302 -19.82
ltibia 93.5703
lfoot -8.50279 14.6659
ltoes -10.8362
35
root 9.21511 16.8552 -22.8702 6.55306 -9.80536 -3.18807
lowerback 9.37616 1.55796 5.83237
upperback 1.41601 2.67306 0.633788
thorax -3.54329 1.25335 -2.9401
lowerneck -10.6742 1.53907 -1.49392
upperneck -11.3907 2.22311 0.699905
head -1.8287 1.15426 0.499265
rclavicle -1.4561e-014 1.63003e-014
rhumerus -2.58689 24.8139 -76.1479
rradius 110.032
rwrist -9.55193
rhand -40.3732 53.9279
rfingers 7.12502
rthumb -13.3275 24.3741
lclavicle -1.4561e-014 1.63003e-014
lhumerus -76.8093 -13.2247 91.8804
lradius 83.2701
lwrist 30.4235
lhand -35.4994 4.72375
lfingers 7.12502
lthumb -8.62674 34.5275
rfemur 2.42801 12.1366 30.2079
rtibia 32.1186
rfoot -9.27895 -5.10628
rtoes -23.5476
lfemur -46.4825 0.498052 -19.6724
ltibia 89.7938
lfoot -9.63298 14.6848
ltoes -10.5968
36
root 9.20731 16.9814 -22.4767 6.39772 -9.47226 -2.89514
lowerback 9.31699 1.54873 5.52916
upperback 1.32927 2.62954 0.605016
thorax -3.61742 1.23194 -2.79523
lowerneck -10.9072 1.3967 -1.52797
upperneck -10.932 2.0409 0.74131
head -1.64067 1.06386 0.517789
rclavicle -4.46272e-014 3.04141e-014
rhumerus -3.67467 25.0989 -76.731
rradius 111.039
rwrist -9.80069
rhand -39.4721 54.5921
rfingers 7.12502
rthumb -12.4588 24.9834
lclavicle -4.46272e-014 3.04141e-014
lhumerus -77.2946 -12.2736 91.5484
lradius 83.401
lwrist 30.3836
lhand -34.6708 5.08485
lfingers 7.12502
lthumb -7.82707 34.92
rfemur 3.91189 11.3775 29.6061
rtibia 30.9134
rfoot -5.14453 -4.16995
rtoes -22.464
lfemur -46.0222 -0.466303 -19.8856
ltibia 85.5902
lfoot -10.8667 14.6625
ltoes -10.7347
37
root 9.20001 17.1022 -22.0844 6.22098 -9.20726 -2.77713
lowerback 9.23369 1.60165 5.35468
upperback 1.34174 2.67842 0.648539
thorax -3.56397 1.26055 -2.65434
lowerneck -11.429 1.22336 -1.80714
upperneck -10.4804 1.86079 1.02778
head -1.41655 0.982385 0.655026
rclavicle -3.62285e-014 -1.74931e-014
rhumerus -4.88104 25.143 -77.2332
rradius 112.402
rwrist -11.0228
rhand -37.5072 53.2817
rfingers 7.12502
rthumb -10.5639 23.5672
lclavicle -3.62285e-014 -1.74931e-014
lhumerus -77.4469 -11.3447 91.2205
lradius 83.5074
lwrist 30.2539
lhand -33.8858 4.79143
lfingers 7.12502
lthumb -7.06931 34.6534
rfemur 5.401 10.5113 29.1174
rtibia 29.6294
rfoot -0.71235 -3.60118
rtoes -22.5871
lfemur -45.2899 -1.20247 -19.9301
ltibia 81.0433
lfoot -11.3107 14.5455
ltoes -13.0772
38
root 9.19324 17.2263 -21.685 5.96632 -9.07448 -2.73243
lowerback 9.36001 1.74364 5.28244
upperback 1.29752 2.87093 0.681655
thorax -3.66975 1.35311 -2.60768
lowerneck -12.306 0.958925 -2.37112
upperneck -9.49328 1.60887 1.56522
head -0.970489 0.874808 0.920569
rclavicle 1.2424e-015 7.15625e-015
rhumerus -6.51329 25.5887 -77.6562
rradius 112.144
rwrist -7.69695
rhand -41.2119 57.6698
rfingers 7.12502
rthumb -14.1358 28.1706
lclavicle 1.2424e-015 7.15625e-015
lhumerus -77.6171 -10.5632 90.979
lradius 83.5764
lwrist 30.1117
lhand -33.5942 4.48887
lfingers 7.12502
lthumb -6.78782 34.3601
rfemur 6.92009 9.51929 28.6263
rtibia 28.2268
rfoot 3.91961 -3.39476
rtoes -22.4353
lfemur -44.1627 -1.64818 -19.9067
ltibia 76.1793
lfoot -11.8439 14.111
ltoes -13.8358
39
root 9.18739 17.3577 -21.2752 5.72129 -8.96736 -2.77408
lowerback 9.39608 1.81209 5.38623
upperback 1.26941 2.97548 0.673531
thorax -3.70491 1.40193 -2.68836
lowerneck -12.7698 0.810884 -2.86145
upperneck -8.83304 1.49721 2.07223
head -0.692649 0.835587 1.16778
rclavicle -2.28105e-014 2.78299e-015
rhumerus -8.00231 25.6297 -78.2013
rradius 112.51
rwrist -7.28228
rhand -40.4027 55.9514
rfingers 7.12502
rthumb -13.3559 26.3995
lclavicle -2.28105e-014 2.78299e-015
lhumerus -77.8373 -9.56077 90.6067
lradius 83.7621
lwrist 29.8911
lhand -33.44 4.60146
lfingers 7.12502
lthumb -6.63897 34.4774
rfemur 8.41173 8.6833 28.2072
rtibia 26.9152
rfoot 8.27376 -3.59533
rtoes -19.7189
lfemur -42.9219 -1.96653 -19.7679
ltibia 71.1645
lfoot -12.4736 13.4814
ltoes -13.0747
40
root 9.17947 17.4811 -20.862 5.71259 -8.88312 -3.07267
lowerback 9.17991 1.84559 5.67677
upperback 1.14384 3.04261 0.730926
thorax -3.69816 1.42958 -2.79219
lowerneck -12.6466 0.797279 -3.23965
upperneck -8.61764 1.53843 2.56736
head -0.650218 0.868105 1.39351
rclavicle 2.22142e-014 -2.42517e-014
rhumerus -9.54733 25.9436 -78.8139
rradius 112.553
rwrist -6.66245
rhand -40.9154 54.1198
rfingers 7.12502
rthumb -13.8501 24.601
lclavicle 2.22142e-014 -2.42517e-014
lhumerus -78.1034 -8.44827 90.1894
lradius 84.1673
lwrist 30.088
lhand -33.2172 5.40338
lfingers 7.12502
lthumb -6.42386 35.286
rfemur 9.57936 8.44924 28.2333
rtibia 25.9915
rfoot 11.8826 -3.86094
rtoes -18.186
lfemur -41.9184 -2.14789 -19.384
ltibia 66.1188
lfoot -12.5075 13.2681
ltoes -14.5132
41
root 9.16757 17.5746 -20.4557 5.73347 -8.95477 -3.07275
lowerback 8.9108 1.98285 5.52089
upperback 1.07823 3.19371 0.713155
thorax -3.61086 1.50837 -2.72967
lowerneck -13.2408 0.74277 -3.42445
upperneck -7.96965 1.51134 2.99131
head -0.350589 0.865149 1.57112
rclavicle 3.51849e-014 7.95139e-015
rhumerus -11.0203 26.0621 -79.3755
rradius 112.49
rwrist -6.55669
rhand -41.3117 54.0386
rfingers 7.12502
rthumb -14.232 24.5462
lclavicle 3.51849e-014 7.95139e-015
lhumerus -78.115 -7.59382 89.8994
lradius 84.572
lwrist 30.6147
lhand -33.38 5.31181
lfingers 7.12502
lthumb -6.58109 35.1896
rfemur 10.4318 8.59042 28.0605
rtibia 25.692
rfoot 14.6184 -3.50515
rtoes -18.327
lfemur -40.8057 -2.27669 -19.32
ltibia 61.0506
lfoot -12.7799 12.9731
ltoes -14.7296
42
root 9.15587 17.6439 -20.0509 5.64725 -9.1037 -2.87618
lowerback 8.46499 2.13579 5.19738
upperback 1.24395 3.32803 0.635053
thorax -3.19175 1.59446 -2.61799
lowerneck -14.0751 0.696168 -3.05837
upperneck -7.38514 1.40858 2.77432
head -0.0233365 0.807692 1.44544
rclavicle 3.8266e-015 5.96354e-016
rhumerus -12.2138 26.1042 -79.883
rradius 112.258
rwrist -6.66423
rhand -41.3395 55.2819
rfingers 7.12502
rthumb -14.2588 25.7914
lclavicle 3.8266e-015 5.96354e-016
lhumerus -77.7961 -6.73928 89.6161
lradius 85.0419
lwrist 30.9107
lhand -33.3584 4.53722
lfingers 7.12502
lthumb -6.56017 34.4156
rfemur 11.0842 8.71561 27.6657
rtibia 26.1412
rfoot 16.1871 -3.19371
rtoes -18.0121
lfemur -39.3938 -2.45849 -19.4474
ltibia 56.0476
lfoot -13.6779 12.3236
ltoes -13.8738
43
root 9.14622 17.7037 -19.6445 5.55336 -9.29094 -3.05392
lowerback 8.08966 2.19198 5.19843
upperback 1.29152 3.38224 0.776756
thorax -2.93744 1.63007 -2.45723
lowerneck -14.0861 0.695729 -2.80537
upperneck -7.09201 1.35842 2.30343
head 0.0756685 0.770137 1.24994
rclavicle 9.14409e-015 1.27222e-014
rhumerus -13.8306 26.5185 -80.4165
rradius 112.389
rwrist -7.7767
rhand -40.2146 53.1048
rfingers 7.12502
rthumb -13.1746 23.541
lclavicle 9.14409e-015 1.27222e-014
lhumerus -77.5969 -5.4637 89.3968
lradius 85.5338
lwrist 31.0292
lhand -32.7616 4.03173
lfingers 7.12502
lthumb -5.98405 33.9272
rfemur 11.4916 8.84004 27.689
rtibia 27.2474
rfoot 16.4338 -3.75043
rtoes -18.3405
lfemur -37.9674 -2.58495 -19.186
ltibia 51.2366
lfoot -14.4632 11.7401
ltoes -15.4622
44
root 9.13992 17.7513 -19.2424 5.63459 -9.44646 -3.44413
lowerback 7.80055 2.23468 5.42144
upperback 1.13409 3.45214 0.965865
thorax -2.93319 1.66071 -2.38253
lowerneck -13.7862 0.666404 -2.98771
upperneck -6.8103 1.3345 2.33713
head 0.117646 0.760138 1.29045
rclavicle 7.10655e-015 -1.47101e-014
rhumerus -15.7634 26.9539 -81.025
rradius 112.562
rwrist -9.68177
rhand -38.3596 50.132
rfingers 7.12502
rthumb -11.3861 20.4612
lclavicle 7.10655e-015 -1.47101e-014
lhumerus -77.4244 -4.34566 89.2204
lradius 85.923
lwrist 31.048
lhand -32.1008 3.63009
lfingers 7.12502
lthumb -5.34604 33.5427
rfemur 11.532 8.96586 27.9667
rtibia 28.7785
rfoot 15.8534 -4.94034
rtoes -18.632
lfemur -36.8412 -2.69251 -18.7149
ltibia 46.7377
lfoot -14.9926 11.3298
ltoes -18.7633
45
root 9.13354 17.7818 -18.8395 5.73728 -9.55769 -3.63894
lowerback 7.41087 2.33205 5.50825
upperback 1.01622 3.57004 1.03854
thorax -2.82844 1.71995 -2.34981
lowerneck -13.6781 0.615242 -3.42406
upperneck -6.50311 1.32872 2.83902
head 0.197342 0.771991 1.53006
rclavicle -1.5704e-014 8.34896e-015
rhumerus -17.4459 27.2246 -81.5904
rradius 111.998
rwrist -10.9494
rhand -37.7283 49.8011
rfingers 7.12502
rthumb -10.7772 20.0976
lclavicle -1.5704e-014 8.34896e-015
lhumerus -77.0553 -3.59512 89.0284
lradius 86.3611
lwrist 31.0326
lhand -31.7942 3.69622
lfingers 7.12502
lthumb -5.05003 33.616
rfemur 11.4919 9.05094 28.0119
rtibia 30.5059
rfoot 14.8372 -6.52412
rtoes -17.2032
lfemur -35.7803 -2.79655 -18.5256
ltibia 42.6777
lfoot -15.7613 11.1183
ltoes -22.2457
